<?xml version="1.0" standalone="no"?>
<!DOCTYPE svg PUBLIC "-//W3C//DTD SVG 20010904//EN"
 "http://www.w3.org/TR/2001/REC-SVG-20010904/DTD/svg10.dtd">
<svg version="1.0" xmlns="http://www.w3.org/2000/svg"
 width="460.000000pt" height="460.000000pt" viewBox="0 0 460.000000 460.000000"
 preserveAspectRatio="xMidYMid meet">
<metadata>
Created by potrace 1.14, written by Peter Selinger 2001-2017
</metadata>
<g transform="translate(0.000000,460.000000) scale(0.100000,-0.100000)"
fill="#000000" stroke="none">
<path d="M0 3701 c0 -846 1 -899 17 -906 12 -4 25 2 40 20 13 14 23 21 23 16
0 -6 18 -11 40 -11 22 0 40 5 40 10 0 6 33 10 79 10 54 0 81 4 84 13 4 10 6
10 6 0 1 -18 58 -16 65 2 3 10 19 15 46 15 22 0 40 5 40 10 0 6 58 10 155 10
117 0 155 3 155 13 0 9 2 9 9 -1 6 -10 10 -10 21 3 10 12 10 15 -4 15 -9 0
-16 5 -16 10 0 6 18 10 40 10 22 0 40 -4 40 -10 0 -5 18 -10 40 -10 22 0 40 5
40 10 0 6 47 10 120 10 104 0 120 -2 120 -16 0 -14 9 -16 51 -12 28 3 54 10
58 15 10 17 160 22 176 7 16 -16 115 -19 115 -4 0 6 33 10 80 10 82 0 110 -15
43 -23 -24 -3 -20 -3 10 -2 36 2 52 7 63 24 12 17 25 21 70 21 47 0 54 -2 54
-20 0 -28 16 -25 46 8 16 17 27 23 30 15 4 -9 12 -9 32 -1 15 5 50 12 77 15
28 3 52 9 53 14 2 5 75 9 163 9 99 0 159 4 159 10 0 6 18 10 40 10 22 0 40 -4
40 -10 0 -6 33 -10 80 -10 64 0 80 3 80 15 0 11 11 15 39 15 23 0 41 5 43 13
4 9 53 12 201 12 151 0 197 3 197 13 0 7 15 12 40 12 22 0 40 -4 40 -10 0 -6
33 -10 80 -10 47 0 80 4 80 10 0 6 33 10 79 10 46 0 81 4 83 10 2 7 75 15 183
20 99 5 212 14 250 19 39 6 100 10 138 11 38 0 67 4 67 10 0 6 45 10 115 10
103 0 115 2 115 18 0 12 3 13 8 5 6 -10 16 -10 45 -1 20 6 37 15 37 20 0 4 9
8 20 8 20 0 20 7 20 695 l0 695 -2300 0 -2300 0 0 -899z m4560 -471 c0 -5 -7
-7 -15 -4 -8 4 -15 8 -15 10 0 2 7 4 15 4 8 0 15 -4 15 -10z m-3295 -300 c4
-6 -7 -10 -25 -10 -18 0 -29 4 -25 10 3 6 15 10 25 10 10 0 22 -4 25 -10z"/>
<path d="M2274 2326 c-3 -8 -12 -12 -21 -9 -15 6 -33 -12 -33 -32 1 -5 5 -2
11 8 5 9 15 17 20 17 6 0 7 -6 3 -12 -6 -10 -5 -10 8 -1 8 7 17 11 19 8 3 -2
5 5 5 15 0 24 -5 25 -12 6z"/>
<path d="M2303 2320 c-1 -13 4 -16 18 -13 24 7 24 10 1 22 -14 7 -18 6 -19 -9z"/>
<path d="M2656 2321 c-3 -5 -22 -12 -43 -16 -36 -6 -81 -30 -75 -40 9 -19 0
-33 -20 -27 -20 5 -21 6 -3 12 13 4 15 9 7 14 -6 4 -20 2 -30 -3 -11 -6 -23
-7 -27 -3 -4 4 -5 -6 -1 -23 5 -21 4 -26 -3 -15 -9 12 -14 11 -40 -8 -17 -12
-35 -22 -41 -22 -15 0 -12 -16 6 -30 13 -11 16 -10 21 10 6 22 7 23 14 4 7
-18 8 -18 8 0 1 12 6 16 17 12 9 -3 20 -6 25 -6 5 0 9 -7 9 -15 0 -8 -4 -15
-9 -15 -10 0 -9 -26 2 -36 4 -4 7 0 7 9 0 10 5 17 10 17 6 0 10 12 11 28 0 24
1 25 9 7 6 -14 9 -15 9 -5 1 19 41 21 41 2 0 -7 -4 -10 -10 -7 -5 3 -10 -1
-10 -10 0 -10 5 -13 12 -9 8 5 9 2 5 -9 -3 -10 -2 -17 4 -17 11 0 31 48 24 60
-7 11 51 34 64 25 6 -3 11 1 11 10 0 13 3 14 15 3 12 -11 12 -14 -2 -23 -24
-15 -53 -44 -53 -53 0 -12 33 -11 48 1 11 8 11 12 0 18 -10 6 -8 12 10 24 18
13 20 20 12 35 -8 15 -6 21 10 30 13 7 20 7 20 0 0 -5 -6 -10 -12 -10 -8 0 -5
-7 6 -15 11 -8 25 -15 30 -14 6 0 5 3 -1 6 -24 9 -13 28 18 29 17 1 25 -2 19
-6 -6 -4 -11 -10 -11 -14 1 -3 1 -7 0 -8 -1 -2 -2 -18 -4 -35 -3 -34 11 -45
21 -18 9 22 41 18 47 -6 3 -12 10 -18 15 -15 5 3 23 -4 38 -16 27 -20 28 -21
11 -1 -9 11 -15 27 -12 36 7 17 45 30 45 15 0 -5 4 -6 10 -3 5 3 7 0 4 -8 -3
-8 2 -17 12 -21 13 -5 15 -2 12 18 -4 17 -1 23 9 19 7 -3 13 1 13 8 0 10 3 10
12 1 15 -15 32 -16 23 -2 -3 6 0 10 8 10 16 0 59 -78 51 -92 -3 -4 2 -18 10
-30 13 -18 16 -19 16 -6 0 9 -5 20 -10 23 -6 4 -8 11 -4 16 3 6 15 4 29 -5 26
-17 39 -9 25 14 -5 9 -5 19 1 27 6 6 7 22 4 34 -7 20 -8 20 -17 6 -5 -10 -6
-22 -3 -27 4 -6 -4 -14 -17 -19 -18 -6 -25 -4 -34 13 -14 28 -7 39 17 26 15
-8 19 -7 19 4 0 8 -6 16 -12 19 -7 2 4 7 24 11 25 5 39 13 44 28 10 33 -18 49
-64 36 -37 -10 -74 -31 -69 -39 1 -2 -2 -1 -8 3 -14 12 -25 9 -19 -5 3 -10 -5
-12 -32 -9 -20 3 -39 0 -43 -5 -8 -13 -71 -4 -71 9 0 6 8 7 17 3 15 -5 15 -3
-2 13 -18 18 -32 20 -60 11 -5 -2 -23 1 -40 8 -16 6 -43 14 -59 18 -16 3 -30
14 -33 25 -5 21 -28 27 -37 11z m-51 -60 c-3 -6 -11 -8 -17 -5 -6 4 -5 9 3 15
16 10 23 4 14 -10z m-35 -15 c0 -3 -4 -8 -10 -11 -5 -3 -10 -1 -10 4 0 6 5 11
10 11 6 0 10 -2 10 -4z m80 -16 c0 -5 -4 -10 -10 -10 -5 0 -10 5 -10 10 0 6 5
10 10 10 6 0 10 -4 10 -10z m457 -6 c-3 -3 -12 -4 -19 -1 -8 3 -5 6 6 6 11 1
17 -2 13 -5z m-314 -19 c-3 -9 -8 -14 -10 -11 -3 3 -2 9 2 15 9 16 15 13 8 -4z
m57 1 c0 -11 -19 -15 -25 -6 -3 5 1 10 9 10 9 0 16 -2 16 -4z"/>
<path d="M1981 2304 c0 -11 3 -14 6 -6 3 7 2 16 -1 19 -3 4 -6 -2 -5 -13z"/>
<path d="M2000 2302 c0 -4 6 -14 13 -21 10 -11 10 -13 0 -7 -8 4 -13 2 -13 -6
1 -14 30 -57 30 -43 0 4 8 2 18 -6 9 -8 24 -14 32 -13 8 1 24 3 35 4 11 1 15
4 8 7 -7 2 -13 13 -13 24 0 25 -7 24 -32 -3 -11 -13 -17 -17 -13 -10 3 6 1 13
-4 13 -6 1 -15 3 -21 4 -5 1 -16 3 -22 4 -9 1 -9 4 1 10 9 6 22 6 33 0 14 -8
18 -6 18 10 0 20 -30 39 -30 18 0 -7 -5 -4 -11 6 -10 17 -29 23 -29 9z"/>
<path d="M2468 2293 c-24 -6 -23 -18 1 -20 11 -1 25 5 32 13 12 15 4 17 -33 7z"/>
<path d="M2920 2285 c0 -8 7 -15 16 -15 9 0 12 5 8 12 -5 8 -2 9 10 5 10 -4
15 -3 11 3 -10 16 -45 12 -45 -5z"/>
<path d="M1875 2280 c3 -5 8 -10 11 -10 2 0 4 5 4 10 0 6 -5 10 -11 10 -5 0
-7 -4 -4 -10z"/>
<path d="M1971 2243 c-16 -18 -8 -28 13 -16 8 4 12 13 8 20 -5 8 -11 7 -21 -4z"/>
<path d="M3218 2248 c7 -7 12 -19 13 -27 0 -16 110 -94 137 -97 7 -2 23 -9 36
-18 22 -14 24 -13 35 7 10 20 11 19 6 -8 -3 -16 0 -37 5 -45 8 -11 9 -8 4 13
-5 20 -2 27 9 27 9 0 19 5 23 12 5 8 2 9 -9 5 -10 -3 -17 -2 -17 3 0 6 4 10 9
10 5 0 17 3 26 6 12 5 16 2 13 -11 -2 -11 4 -19 16 -21 57 -9 68 -15 63 -35
-3 -13 2 -28 14 -40 22 -22 33 -25 26 -6 -3 8 3 13 14 13 12 0 18 -5 15 -13
-7 -16 6 -17 22 -1 9 9 15 9 23 1 6 -6 18 -9 27 -6 9 4 13 2 9 -4 -4 -6 -2
-13 3 -15 6 -2 12 -14 14 -28 1 -14 5 -32 8 -40 15 -39 17 -51 8 -45 -6 3 -10
13 -10 21 0 8 -4 14 -8 14 -5 0 -13 16 -18 36 -5 21 -20 44 -34 53 -23 14 -24
14 -12 0 7 -9 9 -25 5 -35 -6 -17 -5 -17 10 -5 11 8 17 9 17 3 0 -14 -31 -31
-47 -25 -7 3 -13 0 -13 -7 0 -6 -5 -8 -10 -5 -6 4 -9 12 -8 18 2 7 -2 14 -7
17 -6 3 -11 -10 -13 -28 l-3 -32 -30 30 c-17 17 -35 28 -39 25 -10 -6 -2 -36
11 -45 4 -3 10 -28 13 -55 4 -28 12 -53 21 -58 20 -11 20 -31 0 -23 -18 7 -20
-5 -2 -23 10 -11 10 -13 0 -7 -9 5 -13 -1 -13 -18 0 -14 -4 -26 -9 -26 -6 0
-8 10 -6 21 3 12 2 19 -2 16 -3 -4 -14 -2 -23 3 -13 7 -20 6 -24 -6 -3 -8 -10
-12 -16 -9 -22 14 -8 -15 17 -35 20 -16 28 -18 35 -8 6 11 8 10 8 0 0 -7 5
-10 11 -6 9 5 10 -1 5 -20 -4 -18 -3 -25 6 -24 7 2 13 -5 13 -15 0 -17 20 -37
38 -37 4 0 0 14 -9 31 -11 23 -13 34 -5 42 8 8 11 5 11 -10 0 -16 5 -21 20
-18 11 2 20 0 20 -5 0 -4 3 -17 6 -27 5 -16 4 -16 -10 1 -12 15 -16 16 -16 5
0 -8 7 -24 16 -35 8 -10 12 -12 8 -4 -6 12 -4 12 12 -1 10 -9 29 -15 42 -13
18 3 22 -1 22 -23 0 -43 10 -20 13 28 1 27 9 51 19 62 10 9 18 12 18 6 0 -8 4
-8 15 1 12 10 15 7 21 -16 8 -33 50 -74 75 -74 9 0 20 -6 23 -12 3 -7 4 1 0
17 -5 29 -5 29 10 10 8 -11 16 -28 16 -37 0 -10 4 -18 8 -18 5 0 9 -20 8 -45
0 -25 -3 -45 -8 -45 -8 0 -21 39 -17 56 4 20 -2 31 -16 31 -11 0 -14 -6 -9
-16 17 -43 17 -47 3 -30 -23 26 -49 31 -49 10 0 -32 -27 -46 -62 -33 -36 13
-52 7 -45 -19 5 -18 -1 -22 -20 -17 -5 1 -7 9 -5 17 3 12 2 12 -10 0 -7 -8
-19 -26 -27 -39 -12 -20 -11 -25 2 -35 13 -9 14 -14 5 -23 -14 -14 -32 -16
-23 -2 3 5 1 18 -5 29 -8 15 -7 22 4 28 23 13 29 55 12 78 -15 19 -15 19 -16
1 0 -15 -3 -16 -15 -6 -8 7 -16 9 -16 4 -1 -5 -5 17 -9 49 -4 32 -10 61 -14
64 -3 3 -17 -6 -31 -21 l-25 -27 22 3 c24 3 25 1 27 -58 1 -23 7 -33 21 -37
12 -3 20 -14 20 -26 0 -25 -12 -27 -30 -6 -7 8 -25 15 -41 15 -32 0 -40 9 -41
50 -1 16 -5 27 -10 24 -4 -3 -8 2 -8 11 0 8 -9 23 -20 32 -11 10 -20 24 -20
33 0 13 1 13 10 0 15 -23 12 60 -3 89 -13 26 -43 43 -35 20 2 -7 -7 -23 -21
-36 -14 -12 -20 -23 -13 -23 6 0 12 -6 12 -13 0 -7 11 -28 25 -47 28 -39 33
-62 9 -53 -12 4 -14 0 -8 -21 12 -50 -17 -27 -66 52 -32 52 -50 65 -50 37 0
-8 -5 -15 -11 -15 -7 0 -17 -6 -23 -14 -8 -11 -17 -12 -36 -4 l-25 10 22 10
c12 6 24 16 27 23 7 19 -52 85 -69 78 -9 -3 -15 1 -15 8 0 11 -2 11 -10 -1 -8
-12 -10 -12 -16 4 -4 10 -10 14 -13 9 -3 -4 -16 -13 -27 -20 -23 -12 -44 -1
-44 23 0 16 -28 25 -57 20 -12 -3 -29 2 -40 10 -16 13 -15 14 18 8 22 -3 39
-1 43 5 7 10 -17 112 -34 142 -5 10 -5 20 0 25 5 5 10 38 11 73 2 65 -6 81
-44 81 -11 0 -15 4 -11 12 4 6 3 8 -3 5 -5 -4 -19 1 -29 11 -50 44 -53 45 -43
15 20 -63 20 -63 39 -53 17 9 18 6 15 -35 -1 -25 1 -45 6 -45 5 0 9 6 10 13 1
16 17 -23 18 -43 1 -13 -1 -13 -10 0 -9 12 -10 12 -5 -3 3 -10 6 -24 6 -30 0
-8 3 -7 9 1 6 10 10 7 15 -13 8 -32 -1 -48 -23 -40 -9 4 -25 8 -35 11 -11 2
-22 7 -25 12 -9 13 -53 7 -90 -13 l-35 -18 17 27 c13 20 14 26 4 26 -7 0 -18
-5 -25 -12 -19 -19 -35 3 -23 33 5 13 10 18 10 11 1 -8 6 -10 14 -6 8 5 8 2
-2 -9 -18 -22 -3 -22 22 1 11 9 17 11 13 5 -5 -9 -2 -11 9 -7 26 10 -1 32 -47
36 -33 3 -46 -1 -65 -19 -12 -13 -26 -35 -29 -48 -3 -14 -10 -25 -15 -25 -5 0
-4 12 1 26 13 34 13 38 -5 20 -18 -18 -20 -52 -2 -59 7 -3 5 -6 -5 -6 -10 -1
-18 5 -19 12 -1 6 -4 1 -9 -13 -4 -14 -5 -35 -3 -47 3 -13 1 -23 -3 -23 -5 0
-15 -14 -22 -30 -8 -17 -18 -27 -25 -23 -7 4 -8 0 -4 -11 7 -19 -6 -48 -42
-88 -32 -36 -42 -27 -36 28 6 47 -1 88 -13 80 -12 -7 -41 19 -52 48 -5 15 -14
25 -19 21 -5 -3 -12 -1 -15 4 -11 16 11 22 24 6 7 -8 16 -12 22 -9 5 3 16 0
25 -8 15 -11 16 -11 10 5 -4 10 -7 32 -7 47 0 22 -7 33 -27 44 -20 11 -23 15
-10 16 20 0 21 3 3 55 -10 31 -23 45 -55 61 -23 12 -48 30 -55 39 -7 10 -18
15 -24 11 -18 -11 -15 19 3 34 8 7 15 18 15 25 0 8 6 16 13 18 9 4 9 6 -1 6
-7 1 -10 6 -7 11 3 6 3 10 -1 10 -11 0 -33 -34 -34 -51 0 -22 -27 -32 -38 -14
-4 8 -21 16 -37 17 -17 1 -34 4 -40 7 -5 3 -17 6 -25 7 -8 1 -25 2 -38 3 -14
0 -20 5 -17 12 4 6 13 8 20 5 13 -5 30 22 20 32 -3 3 -5 1 -5 -5 0 -5 -18 -15
-41 -22 -23 -7 -48 -15 -57 -18 -10 -4 -13 -2 -8 5 4 7 1 12 -10 12 -14 0 -15
-2 -3 -17 8 -9 14 -26 14 -37 0 -24 33 -35 46 -14 5 7 6 21 3 32 -4 13 -2 16
6 11 7 -4 9 -17 6 -31 -8 -30 15 -41 91 -42 39 -1 55 3 64 16 10 16 10 15 5
-1 -3 -11 2 -27 13 -39 16 -17 18 -25 8 -47 -6 -14 -17 -31 -25 -38 -12 -10
-12 -14 2 -28 18 -18 22 -45 6 -45 -5 0 -10 8 -11 18 0 16 -1 16 -7 0 -4 -10
-12 -14 -18 -10 -16 10 -27 69 -15 77 7 4 1 16 -14 33 -25 26 -25 27 -5 30 38
6 9 22 -41 22 -32 0 -48 -4 -44 -10 7 -11 -27 -6 -73 11 -30 12 -42 11 -42 -1
0 -5 3 -9 8 -8 26 5 114 -31 106 -44 -3 -4 0 -8 6 -8 6 0 8 -4 5 -10 -3 -5 1
-10 10 -10 8 0 20 10 25 23 8 21 9 21 9 1 1 -11 -5 -26 -11 -33 -11 -10 -9
-14 6 -23 14 -8 15 -12 6 -18 -16 -10 -42 -1 -35 10 3 5 -8 8 -24 7 -17 -1
-30 3 -30 8 1 6 5 9 10 8 17 -5 9 23 -10 37 -11 7 -18 17 -15 22 3 4 -7 4 -21
-2 -20 -8 -27 -7 -31 5 -4 8 -12 15 -20 15 -8 0 -14 5 -14 10 0 6 -13 10 -30
10 -17 0 -30 -5 -30 -12 0 -10 -3 -9 -9 1 -6 9 -11 10 -15 2 -4 -6 -4 -16 -1
-21 3 -5 0 -10 -8 -10 -10 0 -13 8 -10 28 4 26 4 26 -12 7 -15 -18 -15 -17
-12 21 2 23 7 46 11 52 7 12 -8 58 -27 76 -19 19 -46 16 -42 -6 5 -25 -27 -41
-50 -24 -10 7 -15 18 -11 24 4 7 3 12 -3 12 -5 0 -11 -5 -13 -10 -2 -7 -17 -5
-41 5 -37 15 -37 15 -47 -11 -8 -19 -16 -25 -29 -21 -11 2 -32 -4 -47 -14 -26
-17 -30 -17 -46 -2 -11 10 -18 12 -18 5 0 -7 -6 -12 -14 -12 -8 0 -16 -10 -18
-22 -2 -19 -10 -24 -40 -26 -34 -3 -38 -1 -38 20 0 15 -9 27 -25 35 -15 6 -25
7 -25 1 0 -5 -5 -6 -10 -3 -6 4 -8 11 -5 16 4 5 1 9 -4 9 -6 0 -11 -9 -11 -21
0 -11 -4 -18 -9 -14 -5 3 -13 0 -16 -6 -4 -5 -13 -8 -21 -5 -8 3 -11 0 -7 -10
4 -10 9 -12 18 -4 10 8 14 2 19 -25 4 -21 13 -35 21 -35 8 0 15 -6 15 -12 0
-8 7 -5 15 6 8 11 15 15 15 9 0 -7 -5 -15 -10 -18 -6 -4 -8 -10 -5 -14 2 -5
-2 -17 -10 -27 -15 -19 -20 -10 -16 25 2 7 -2 10 -8 7 -13 -8 -54 31 -46 44 3
6 -1 7 -11 3 -13 -5 -15 -2 -10 15 7 20 5 21 -26 10 -18 -6 -45 -20 -59 -31
-18 -13 -37 -18 -60 -14 l-34 4 1 -48 c1 -27 -2 -46 -7 -43 -5 3 -9 13 -9 22
0 11 -3 13 -10 6 -13 -13 -89 21 -97 42 -11 30 -63 8 -63 -26 1 -9 6 -6 14 9
12 23 14 23 18 5 3 -10 6 -32 6 -49 1 -29 0 -29 -10 -7 -13 25 -26 28 -53 8
-24 -17 -45 -10 -45 15 0 10 -7 19 -15 19 -20 0 -15 -20 10 -42 20 -17 20 -17
-1 -18 -24 0 -49 24 -40 39 7 10 -17 21 -42 20 -15 0 -16 -1 -1 -7 25 -11 6
-56 -21 -49 -10 3 -21 0 -24 -7 -3 -8 -5 -8 -5 1 -1 6 4 15 9 18 6 3 10 15 10
27 0 14 -5 18 -16 14 -9 -3 -18 -6 -20 -6 -2 0 -4 -5 -4 -11 0 -8 5 -8 15 1
11 9 15 9 15 1 0 -6 -7 -14 -15 -17 -8 -4 -13 -10 -10 -14 3 -5 -4 -18 -16
-29 l-21 -20 33 6 c19 3 40 10 47 15 7 6 15 9 17 6 11 -11 -25 -29 -69 -34
-49 -6 -52 -4 -36 26 10 19 9 19 -20 2 -18 -10 -30 -25 -30 -37 0 -22 -17 -45
-33 -45 -5 0 -7 12 -4 27 4 24 4 26 -8 10 -7 -9 -21 -17 -31 -17 -17 0 -16 3
6 20 14 11 20 20 13 20 -6 0 -15 -4 -18 -10 -8 -14 -82 -13 -91 1 -3 6 -1 15
5 19 14 8 -76 50 -106 50 -10 0 -29 -9 -41 -19 -22 -16 -23 -19 -7 -34 17 -18
35 -22 35 -9 0 4 -5 13 -12 20 -6 6 -8 15 -4 19 4 4 12 0 17 -10 12 -21 31
-23 22 -1 -5 14 -3 14 18 2 13 -7 27 -17 31 -23 11 -15 10 -37 -2 -30 -6 3
-10 2 -10 -3 0 -6 -18 -6 -45 -1 -51 10 -85 25 -85 39 0 6 -8 10 -18 10 -9 0
-34 11 -54 25 -20 14 -44 25 -52 25 -9 0 -16 6 -16 14 0 8 -11 17 -24 20 -13
3 -31 9 -40 12 -15 6 -16 -83 -16 -995 l0 -1001 2300 0 2301 0 -1 305 c-1 189
-5 303 -11 300 -5 -4 -9 1 -9 9 0 8 -10 22 -22 31 -18 12 -20 17 -10 24 8 4
13 11 13 15 -1 3 2 5 7 4 4 -1 6 -8 4 -14 -1 -6 4 -14 12 -17 12 -5 14 24 15
188 1 165 -1 194 -13 189 -8 -3 -23 3 -33 13 -11 11 -24 18 -30 16 -6 -2 -14
1 -18 6 -3 7 0 8 10 5 11 -5 14 -2 9 10 -3 9 -1 16 4 16 6 0 14 -9 17 -20 7
-23 28 -26 42 -7 6 6 11 54 12 105 1 89 1 92 -21 93 -13 1 -27 1 -32 0 -21 -4
-46 12 -46 30 0 10 5 19 10 19 6 0 10 -4 10 -10 0 -5 9 -10 20 -10 11 0 20 -4
20 -10 0 -5 9 -10 20 -10 17 0 20 7 20 44 0 39 -2 43 -22 39 -15 -3 -32 4 -47
18 -14 13 -36 23 -49 23 -14 0 -36 10 -50 23 -14 13 -31 23 -39 23 -7 0 -16 7
-19 15 -7 18 -41 20 -46 3 -3 -9 -12 -8 -32 6 -15 9 -25 20 -22 23 10 10 -15
33 -36 33 -11 0 -22 8 -25 18 -2 10 -15 19 -30 20 -28 2 -45 19 -69 67 l-15
30 6 -30 c5 -27 4 -28 -8 -13 -13 16 -14 16 -14 -10 0 -15 -4 -44 -8 -64 -8
-42 16 -108 39 -108 8 0 19 -7 26 -16 12 -13 8 -15 -28 -13 -37 3 -42 6 -43
28 l-1 26 -8 -25 -8 -25 -2 25 c-5 51 2 165 11 168 16 6 10 30 -16 60 -14 17
-25 34 -25 40 0 5 -9 16 -21 24 -13 8 -20 21 -17 36 3 20 5 21 28 9 l25 -13
-9 57 c-8 48 -7 59 7 74 16 15 17 15 24 0 3 -10 21 -33 40 -51 19 -19 31 -39
27 -46 -4 -7 -3 -8 4 -4 7 4 12 1 12 -8 0 -19 30 -22 31 -3 0 6 5 -1 11 -17 7
-20 13 -24 18 -16 6 11 15 10 43 -3 19 -10 40 -17 46 -17 17 0 121 -107 121
-124 0 -8 10 -22 22 -30 12 -9 18 -16 14 -16 -5 0 4 -11 19 -24 16 -14 32 -23
36 -20 4 2 15 -6 23 -18 9 -12 16 -19 16 -14 0 4 -9 19 -20 33 -27 35 -16 43
16 12 14 -13 29 -22 32 -19 4 3 8 -5 10 -17 2 -13 -1 -23 -5 -23 -14 0 -53
-40 -52 -53 0 -9 2 -9 6 1 2 6 11 12 19 12 8 0 14 4 14 9 0 5 9 11 20 14 19 5
20 14 20 331 0 283 -2 326 -15 326 -8 0 -15 -4 -15 -10 0 -5 -5 -10 -11 -10
-5 0 -8 4 -5 9 3 5 -3 11 -14 14 -11 3 -20 1 -20 -4 0 -5 -4 -9 -10 -9 -5 0
-10 6 -10 14 0 8 -5 18 -10 21 -7 4 -9 -3 -5 -22 3 -15 2 -22 -1 -15 -3 6 -14
12 -25 12 -12 0 -16 5 -13 15 4 9 0 15 -9 15 -9 0 -23 3 -33 7 -12 4 -15 2
-12 -8 3 -8 11 -13 17 -12 6 2 11 -4 11 -12 0 -9 -6 -12 -15 -9 -8 4 -15 10
-15 15 0 5 -18 6 -40 3 -27 -4 -40 -3 -40 5 0 6 -11 11 -24 11 -32 0 -57 10
-51 20 3 5 -4 11 -15 14 -11 3 -29 9 -41 12 -17 5 -20 3 -15 -14 5 -14 1 -21
-15 -25 -11 -3 -18 -10 -15 -15 6 -11 -23 -26 -32 -17 -3 3 0 5 6 5 25 0 10
18 -19 24 -21 4 -29 10 -26 20 3 8 -5 18 -19 25 -24 10 -25 10 -19 -10 7 -20
5 -21 -25 -16 -26 6 -31 4 -26 -8 3 -9 0 -15 -9 -15 -8 0 -15 -5 -15 -11 0 -6
-7 -9 -15 -5 -11 4 -15 -1 -15 -17 0 -12 -3 -17 -8 -11 -11 16 -41 26 -92 30
-25 3 -59 12 -77 21 -30 16 -33 16 -51 0 -20 -19 -37 -23 -27 -7 4 6 -7 10
-25 10 -17 0 -29 -4 -25 -9 3 -5 1 -12 -5 -16 -5 -3 -10 -1 -10 4 0 6 -7 11
-15 11 -8 0 -35 12 -61 26 -37 21 -51 24 -69 16 -13 -6 -27 -7 -36 -1 -8 5
-31 9 -51 9 -38 0 -107 30 -129 56 -6 8 -16 14 -22 14 -7 0 -7 -4 1 -12z
m-1372 -138 c5 0 10 -6 12 -14 2 -11 -4 -14 -22 -12 -35 4 -42 12 -26 31 9 11
15 13 20 5 4 -7 11 -11 16 -10z m2421 14 c-3 -3 -12 -4 -19 -1 -8 3 -5 6 6 6
11 1 17 -2 13 -5z m-2612 -15 c-5 -6 -55 0 -55 7 0 3 13 3 29 2 16 -1 28 -5
26 -9z m29 -4 c-4 -8 -11 -15 -16 -15 -6 0 -5 6 2 15 7 8 14 15 16 15 2 0 1
-7 -2 -15z m2086 0 c14 -16 10 -18 -14 -9 -9 3 -16 10 -16 15 0 14 16 11 30
-6z m-2183 -27 c-3 -8 -6 -5 -6 6 -1 11 2 17 5 13 3 -3 4 -12 1 -19z m70 1
c35 -22 39 -42 9 -47 -25 -5 -66 7 -66 19 0 6 4 8 9 5 4 -3 6 6 3 19 -5 30 1
31 45 4z m2813 11 c0 -13 -11 -13 -30 0 -12 8 -11 10 8 10 12 0 22 -4 22 -10z
m-2685 -20 c8 0 17 -5 20 -10 3 -6 -2 -9 -12 -7 -28 4 -44 17 -36 30 5 8 8 8
11 -1 2 -7 10 -12 17 -12z m2775 -7 c0 -11 -4 -11 -20 -3 -11 6 -20 15 -20 19
0 5 9 7 20 4 11 -3 20 -12 20 -20z m-2696 -27 c-3 -8 -12 -17 -21 -20 -8 -4
-13 -13 -9 -21 3 -9 -4 -25 -16 -37 -16 -16 -23 -18 -26 -9 -4 11 -6 11 -13 0
-6 -10 -9 -6 -9 13 0 21 6 29 26 34 19 5 22 9 12 15 -11 8 -11 11 1 18 8 5 20
7 27 4 6 -2 15 0 19 6 9 16 15 13 9 -3z m-646 -33 c12 -11 13 -18 5 -20 -8 -3
-10 -15 -6 -34 4 -22 2 -29 -11 -29 -11 0 -16 9 -16 28 0 21 -2 24 -10 12 -13
-20 -13 1 0 34 11 31 16 32 38 9z m432 13 c0 -2 -7 -6 -15 -10 -8 -3 -15 -1
-15 4 0 6 7 10 15 10 8 0 15 -2 15 -4z m-220 -16 c-8 -5 -24 -9 -35 -9 -16 1
-16 2 5 9 35 11 48 11 30 0z m115 0 c-8 -13 18 -13 31 -1 5 6 24 3 49 -9 22
-11 30 -17 19 -15 -16 4 -23 0 -27 -15 -3 -11 -1 -23 4 -26 5 -3 9 0 9 7 0 7
2 10 4 8 2 -2 1 -22 -3 -44 -5 -30 -3 -43 9 -52 10 -8 11 -12 3 -13 -7 0 -10
-7 -6 -16 4 -12 2 -15 -8 -12 -7 2 -16 15 -19 28 -8 34 -46 44 -71 19 -16 -16
-23 -18 -35 -8 -22 18 -17 29 14 29 15 0 34 6 43 13 23 17 41 55 30 61 -5 4
-11 1 -13 -5 -6 -17 -65 -13 -84 5 -14 15 -15 19 -3 27 8 5 20 7 27 4 7 -3 11
-1 7 4 -3 5 1 12 7 14 19 8 20 8 13 -3z m625 0 c0 -5 -4 -10 -10 -10 -5 0 -10
5 -10 10 0 6 5 10 10 10 6 0 10 -4 10 -10z m194 -47 c-6 -31 -7 -32 -31 -16
-22 15 -23 18 -9 28 9 7 16 21 16 31 0 16 2 17 15 3 11 -10 13 -25 9 -46z m66
12 c0 -17 -22 -55 -32 -55 -10 0 -10 2 1 9 7 5 10 14 7 20 -4 6 -2 11 5 11 8
0 8 4 -1 15 -11 13 -10 14 4 9 9 -3 16 -8 16 -9z m-1327 -25 c-3 -11 -7 -20
-9 -20 -2 0 -4 9 -4 20 0 11 4 20 9 20 5 0 7 -9 4 -20z m601 5 c3 -8 1 -15 -4
-15 -6 0 -10 7 -10 15 0 8 2 15 4 15 2 0 6 -7 10 -15z m2020 -15 c-4 -16 -2
-30 3 -30 5 0 17 -17 26 -37 9 -21 30 -52 46 -70 27 -27 28 -33 15 -44 -13
-10 -17 -10 -24 2 -6 8 -25 14 -47 14 -36 0 -38 2 -38 32 0 17 -3 29 -7 26 -5
-2 -8 -13 -8 -24 0 -10 -4 -19 -9 -19 -14 0 -4 82 11 91 7 5 9 9 4 9 -5 0 -4
6 1 13 6 6 13 24 17 40 9 37 17 35 10 -3z m63 13 c3 -10 14 -27 23 -38 24 -29
33 -55 15 -49 -12 5 -65 87 -65 100 0 12 22 1 27 -13z m-2887 -8 c0 -8 -2 -15
-4 -15 -2 0 -6 7 -10 15 -3 8 -1 15 4 15 6 0 10 -7 10 -15z m560 -17 c0 -29 0
-30 -17 -11 -10 10 -17 17 -16 14 2 -2 -2 -10 -8 -18 -9 -10 -15 -10 -25 -2
-8 6 -14 8 -14 4 0 -4 -7 -2 -15 5 -29 24 -16 35 40 36 55 2 55 1 55 -28z
m366 6 c-4 -9 -9 -15 -11 -12 -3 3 -3 13 1 22 4 9 9 15 11 12 3 -3 3 -13 -1
-22z m-516 -9 c0 -7 7 -18 15 -25 11 -9 12 -17 4 -32 -9 -16 -13 -18 -19 -7
-5 7 -6 17 -4 21 3 4 -2 8 -10 8 -18 0 -29 17 -23 34 6 16 37 17 37 1z m-57
-15 c-3 -10 -12 -25 -21 -32 -13 -11 -14 -10 -8 10 5 15 3 22 -6 23 -7 0 -4 4
7 9 30 13 34 12 28 -10z m1219 2 c10 -10 7 -12 -12 -9 -13 2 -26 9 -28 15 -4
14 25 9 40 -6z m-1664 -34 c5 -18 10 -26 11 -17 1 9 7 19 15 22 11 5 13 0 5
-25 -4 -17 -6 -35 -3 -39 9 -14 44 -10 44 5 0 11 6 11 35 -2 26 -12 32 -19 23
-29 -6 -7 -17 -13 -25 -13 -11 0 -14 -8 -11 -30 3 -16 2 -30 -2 -30 -4 0 -5
-15 -3 -32 3 -25 2 -29 -6 -18 -9 12 -13 9 -23 -17 -14 -36 -28 -41 -52 -17
-9 9 -24 13 -35 9 -26 -8 -34 20 -16 56 10 18 11 29 5 29 -6 0 -9 4 -6 9 4 5
-3 7 -14 4 -17 -5 -20 0 -20 26 0 17 -4 31 -10 31 -5 0 -10 -13 -10 -30 0 -37
-13 -39 -26 -2 l-11 27 -9 -35 c-9 -31 -21 -41 -95 -80 -47 -25 -90 -48 -95
-51 -16 -11 -64 -20 -64 -12 0 5 17 19 38 33 20 13 47 36 60 50 16 17 25 21
28 13 7 -15 34 -17 34 -3 0 6 -4 10 -8 10 -4 0 -8 9 -9 20 -1 11 2 20 7 20 5
0 16 8 26 17 17 17 17 16 11 -13 -5 -26 -3 -33 13 -37 22 -6 45 17 35 33 -9
15 13 67 31 74 9 3 12 1 9 -4 -3 -6 -1 -10 5 -10 6 0 8 -5 4 -12 -4 -7 -3 -8
4 -4 7 4 12 19 12 33 0 21 3 23 14 14 10 -8 16 -9 21 -1 3 5 1 10 -4 10 -6 0
-11 5 -11 11 0 6 6 9 14 6 8 -3 16 2 19 14 8 30 33 22 45 -13z m2837 12 c3 -5
1 -10 -4 -10 -6 0 -11 5 -11 10 0 6 2 10 4 10 3 0 8 -4 11 -10z m301 -107
c-15 -15 -24 15 -18 57 l6 45 9 -48 c5 -26 6 -51 3 -54z m-3536 72 c11 -13 10
-14 -4 -9 -9 3 -16 10 -16 15 0 13 6 11 20 -6z m3187 -7 c-3 -8 -6 -5 -6 6 -1
11 2 17 5 13 3 -3 4 -12 1 -19z m193 12 c0 -5 -2 -10 -4 -10 -3 0 -8 5 -11 10
-3 6 -1 10 4 10 6 0 11 -4 11 -10z m220 -42 c0 -5 -6 -8 -14 -8 -14 0 -28 45
-18 55 6 6 31 -33 32 -47z m-2143 10 c-3 -7 -5 -2 -5 12 0 14 2 19 5 13 2 -7
2 -19 0 -25z m33 22 c0 -5 8 -6 17 -3 12 5 15 2 10 -10 -6 -17 4 -23 17 -10 9
10 36 13 36 4 0 -4 12 -8 27 -9 15 -1 31 -6 36 -11 12 -12 -23 -51 -46 -51
-15 0 -18 5 -13 25 7 27 -8 35 -18 10 -3 -8 -13 -15 -23 -14 -16 0 -15 1 2 9
18 7 18 9 3 15 -28 11 -52 13 -64 4 -7 -6 -9 1 -6 21 4 27 22 44 22 20z m514
-22 c-2 -3 2 -9 8 -12 7 -3 4 -5 -6 -3 -11 1 -20 11 -23 25 -2 19 -1 21 11 10
8 -7 12 -16 10 -20z m-84 8 c0 -8 -7 -16 -15 -20 -15 -5 -21 14 -8 27 11 12
23 8 23 -7z m1560 -17 c6 -10 7 -19 2 -19 -5 0 -14 12 -20 26 -14 29 2 24 18
-7z m-926 15 c9 -3 13 -10 10 -15 -3 -5 2 -6 10 -3 12 4 16 0 16 -16 0 -17 -3
-20 -13 -12 -7 6 -18 8 -23 4 -13 -9 -9 -45 5 -50 6 -2 11 -14 11 -27 0 -20
-5 -23 -35 -23 -27 0 -35 4 -35 18 0 10 7 25 15 34 22 22 18 27 -11 16 -19 -8
-31 -6 -47 5 -17 12 -18 15 -5 15 9 0 19 -6 21 -12 4 -10 8 -9 16 2 6 8 11 11
11 5 0 -5 4 -4 9 4 12 19 3 41 -18 41 -14 0 -14 2 -1 10 17 11 41 13 64 4z
m-1547 -26 c-3 -8 -6 -5 -6 6 -1 11 2 17 5 13 3 -3 4 -12 1 -19z m93 18 c0 -3
-4 -8 -10 -11 -5 -3 -10 -1 -10 4 0 6 5 11 10 11 6 0 10 -2 10 -4z m-210 -68
c0 -26 -17 -22 -36 7 -14 21 -14 28 -3 41 11 14 14 13 25 -8 8 -13 13 -31 14
-40z m590 22 c0 -5 -7 -7 -15 -4 -8 4 -15 8 -15 10 0 2 7 4 15 4 8 0 15 -4 15
-10z m1818 -33 c-1 -1 -13 -11 -25 -21 l-23 -19 0 31 c0 33 28 49 43 24 5 -7
7 -14 5 -15z m-2568 8 c0 -9 8 -14 23 -12 15 1 21 -3 18 -13 -1 -8 -4 -25 -5
-37 -2 -29 -16 -18 -16 13 0 14 -6 24 -14 24 -9 0 -12 -8 -8 -25 5 -30 -16
-26 -37 7 -11 18 -11 20 3 15 12 -5 16 0 16 18 0 14 5 25 10 25 6 0 10 -7 10
-15z m925 -15 c-3 -13 2 -20 13 -21 12 0 9 -3 -7 -10 -18 -7 -27 -6 -33 3 -12
19 -10 46 5 51 18 7 26 -1 22 -23z m-355 -29 c0 -32 -6 -24 -14 19 -4 25 -3
31 4 20 5 -8 10 -26 10 -39z m250 28 c0 -4 -7 -6 -15 -3 -8 4 -15 10 -15 15 0
4 7 6 15 3 8 -4 15 -10 15 -15z m36 -36 c-1 -36 -5 -47 -18 -49 -13 -2 -18 5
-18 23 0 18 4 24 15 19 17 -6 21 9 5 19 -16 10 -12 45 4 39 9 -3 13 -21 12
-51z m807 45 c-2 -5 1 -8 6 -8 6 0 11 -9 11 -20 0 -23 -15 -27 -24 -5 -3 8
-12 15 -19 15 -8 0 -20 7 -27 14 -10 13 -6 15 23 13 19 -1 33 -5 30 -9z m1149
-43 c-2 -8 2 -15 8 -15 5 0 10 -4 10 -10 0 -18 -25 -10 -39 13 -8 12 -21 33
-30 47 l-16 25 35 -22 c20 -13 34 -29 32 -38z m-1484 -42 c24 -35 27 -43 14
-43 -5 0 -19 20 -32 45 -13 25 -29 50 -37 56 -7 6 -13 16 -13 21 0 10 29 -24
68 -79z m407 79 c20 -14 17 -42 -5 -42 -23 0 -26 10 -7 29 10 11 10 13 0 7 -7
-4 -13 -2 -13 3 0 13 11 14 25 3z m-145 -75 c-1 -6 -7 -1 -15 13 -8 14 -15 21
-15 15 -1 -13 -30 26 -30 39 0 6 14 -4 30 -22 17 -18 30 -38 30 -45z m-950 59
c0 -3 -4 -8 -10 -11 -5 -3 -10 -1 -10 4 0 6 5 11 10 11 6 0 10 -2 10 -4z m110
-26 c13 -8 13 -10 -2 -10 -9 0 -20 5 -23 10 -8 13 5 13 25 0z m2110 -23 c0 -5
-4 -5 -10 -2 -5 3 -10 14 -10 23 0 15 2 15 10 2 5 -8 10 -19 10 -23z m-1970
-2 c0 -8 5 -15 11 -15 6 0 9 -9 6 -20 -3 -13 0 -20 10 -20 8 0 12 -3 10 -7 -3
-5 6 -16 19 -26 19 -14 23 -15 18 -2 -3 8 -2 15 4 15 10 0 22 -23 22 -41 0 -6
-6 -7 -12 -3 -10 6 -10 4 0 -7 14 -15 17 -63 3 -55 -5 3 -11 -1 -15 -9 -3 -10
1 -15 11 -15 21 0 11 -11 -14 -14 -29 -5 -53 13 -53 40 0 31 -17 65 -42 82
-21 15 -23 47 -5 85 13 29 27 36 27 12z m-520 -35 c0 -10 -4 -21 -9 -24 -10
-7 -20 23 -14 42 6 17 23 4 23 -18z m1460 26 c0 -3 -4 -8 -10 -11 -5 -3 -10
-1 -10 4 0 6 5 11 10 11 6 0 10 -2 10 -4z m134 -7 c3 -3 -4 -10 -14 -17 -17
-10 -20 -10 -20 7 0 17 21 23 34 10z m-324 -30 c0 -11 -4 -17 -10 -14 -5 3
-10 15 -10 26 0 11 5 17 10 14 6 -3 10 -15 10 -26z m280 27 c0 -3 -4 -8 -10
-11 -5 -3 -10 -1 -10 4 0 6 5 11 10 11 6 0 10 -2 10 -4z m-2487 -26 c-10 -11
-19 -20 -21 -20 -1 0 2 9 8 20 6 11 15 20 20 20 6 0 2 -9 -7 -20z m77 -24 c0
-5 -7 -3 -15 4 -8 7 -15 20 -15 28 0 13 3 12 15 -4 8 -10 15 -23 15 -28z m560
1 c0 -5 -4 -5 -10 -2 -5 3 -10 14 -10 23 0 15 2 15 10 2 5 -8 10 -19 10 -23z
m-675 -7 c3 -5 1 -10 -4 -10 -6 0 -11 5 -11 10 0 6 2 10 4 10 3 0 8 -4 11 -10z
m2342 -12 c-3 -8 -6 -5 -6 6 -1 11 2 17 5 13 3 -3 4 -12 1 -19z m83 -1 c0 -4
4 -6 9 -3 11 7 33 -18 24 -27 -12 -13 -32 -7 -59 18 l-27 25 27 -2 c14 -1 26
-6 26 -11z m528 -18 c-3 -8 -7 -3 -11 10 -4 17 -3 21 5 13 5 -5 8 -16 6 -23z
m522 -11 c0 -17 -3 -18 -15 -8 -8 7 -15 21 -15 32 0 17 3 18 15 8 8 -7 15 -21
15 -32z m-3100 2 c0 -19 -18 -19 -23 -1 -3 14 -1 18 9 14 8 -3 14 -9 14 -13z
m630 -15 c4 -36 0 -55 -11 -55 -6 0 -8 7 -5 16 3 8 -2 27 -12 42 -9 14 -11 23
-4 19 7 -5 12 -3 12 4 0 20 18 -3 20 -26z m1049 3 c-12 -18 -24 -35 -26 -37
-2 -2 -3 3 -3 12 0 14 36 57 48 57 2 0 -7 -15 -19 -32z m118 -9 c1 -19 -1 -25
-4 -14 -3 11 -9 24 -14 30 -13 13 -11 27 4 23 6 -3 13 -20 14 -39z m-2110 5
c1 -18 -2 -23 -9 -16 -6 6 -8 18 -5 26 9 22 12 20 14 -10z m1893 6 c0 -5 -7
-7 -15 -4 -8 4 -12 10 -9 15 6 11 24 2 24 -11z m-1854 -31 l-15 -34 -1 32 c0
17 6 33 13 36 18 7 19 3 3 -34z m2424 31 c0 -5 -4 -10 -10 -10 -5 0 -10 5 -10
10 0 6 5 10 10 10 6 0 10 -4 10 -10z m-1700 -16 c0 -8 -5 -12 -10 -9 -6 4 -8
11 -5 16 9 14 15 11 15 -7z m233 -10 c-7 -19 -10 -18 -16 5 -3 13 -1 18 9 14
7 -2 10 -11 7 -19z m1088 14 c1 -7 0 -19 -1 -27 -1 -8 4 -18 12 -22 9 -6 7 -9
-9 -9 -16 0 -23 6 -23 19 0 11 -3 26 -6 35 -4 11 -1 16 10 16 9 0 17 -6 17
-12z m599 -32 c0 -8 5 -18 10 -21 15 -9 12 -25 -5 -25 -9 0 -26 -10 -38 -23
-12 -13 -21 -21 -20 -18 2 2 -3 11 -10 19 -10 13 -9 15 11 10 19 -5 22 -2 24
25 1 18 1 42 0 55 -1 19 1 20 14 8 8 -8 14 -21 14 -30z m110 23 c0 -26 -25
-30 -26 -4 -1 12 4 22 12 22 8 0 14 -8 14 -18z m-754 -14 c-3 -9 -11 -13 -16
-10 -8 5 -7 11 1 21 14 18 24 11 15 -11z m134 -14 c0 -13 -22 -10 -32 4 -10
14 -9 -35 2 -60 8 -18 9 -18 10 5 1 16 4 19 7 10 3 -8 17 -28 32 -43 16 -18
20 -26 9 -22 -12 5 -18 -1 -23 -24 -7 -34 -42 -52 -56 -30 -5 8 -7 41 -5 74 3
33 5 73 5 88 1 16 5 26 11 22 6 -3 10 -1 10 5 0 7 6 5 15 -4 8 -8 15 -19 15
-25z m1370 29 c0 -5 -2 -10 -4 -10 -3 0 -8 5 -11 10 -3 6 -1 10 4 10 6 0 11
-4 11 -10z m-2240 -20 c0 -5 -5 -10 -11 -10 -5 0 -7 5 -4 10 3 6 8 10 11 10 2
0 4 -4 4 -10z m1050 0 c0 -5 8 -10 17 -10 13 0 14 -3 6 -11 -8 -8 -17 -7 -32
3 -12 8 -18 18 -14 21 10 10 23 8 23 -3z m-1290 -32 c0 9 9 7 30 -8 19 -13 30
-17 30 -9 0 7 3 10 6 6 3 -3 2 -12 -3 -20 -6 -11 -14 -12 -31 -6 -13 5 -20 13
-17 19 3 5 1 10 -4 10 -6 0 -11 -5 -11 -12 0 -6 -9 -3 -20 7 -11 10 -20 25
-20 34 0 12 6 9 20 -9 11 -14 20 -19 20 -12z m277 18 c-3 -8 -1 -17 6 -19 7
-2 9 -8 5 -12 -4 -4 -11 -4 -17 0 -14 8 -14 45 0 45 6 0 9 -6 6 -14z m1156 -3
c32 -5 65 -35 46 -42 -6 -1 -16 5 -23 14 -8 12 -18 15 -26 10 -24 -15 -70 -14
-70 1 0 8 -6 14 -12 15 -7 1 -2 4 12 8 14 5 29 6 33 3 5 -2 22 -6 40 -9z
m-475 -36 l3 -38 -21 21 c-21 21 -21 22 -3 36 16 13 16 13 1 8 -11 -4 -18 -1
-18 6 0 6 8 10 18 8 12 -2 18 -14 20 -41z m32 33 c0 -5 -5 -10 -11 -10 -5 0
-7 5 -4 10 3 6 8 10 11 10 2 0 4 -4 4 -10z m-1963 -25 c-1 0 -13 -9 -27 -20
l-25 -20 18 21 c9 11 17 27 17 35 0 12 2 12 10 -1 5 -8 8 -15 7 -15z m1883 16
c0 -5 -7 -14 -15 -21 -13 -10 -15 -9 -15 9 0 12 6 21 15 21 8 0 15 -4 15 -9z
m-2205 -83 c-13 -42 -14 -52 -3 -59 9 -6 15 0 21 21 4 17 10 30 12 30 9 0 1
-96 -9 -109 -8 -11 -8 -13 2 -7 7 4 12 2 12 -6 0 -8 -6 -20 -12 -27 -11 -11
-10 -13 2 -9 11 4 16 -1 17 -16 0 -11 -1 -16 -3 -10 -3 7 -14 9 -26 6 -19 -5
-20 -2 -13 36 7 41 -9 68 -25 42 -6 -10 -9 -8 -12 7 -3 21 -3 21 -52 -3 -56
-27 -74 -23 -51 13 16 24 16 25 -7 18 -26 -7 -33 -13 85 69 31 21 60 48 63 60
5 13 9 16 12 8 2 -7 -4 -36 -13 -64z m804 58 c8 -9 8 -16 2 -20 -5 -4 -12 -2
-16 4 -3 5 -16 10 -28 10 -18 0 -19 2 -7 10 21 14 36 12 49 -4z m438 -43 c-3
-10 -5 -4 -5 12 0 17 2 24 5 18 2 -7 2 -21 0 -30z m443 22 c0 -8 -4 -15 -10
-15 -5 0 -7 7 -4 15 4 8 8 15 10 15 2 0 4 -7 4 -15z m31 -22 c-8 -15 -10 -15
-11 -2 0 17 10 32 18 25 2 -3 -1 -13 -7 -23z m79 2 c0 -14 -4 -25 -10 -25 -5
0 -10 7 -10 16 0 8 -4 12 -10 9 -5 -3 -10 -2 -10 4 0 5 8 12 18 14 9 3 18 5
20 6 1 0 2 -10 2 -24z m436 -12 c-7 -34 -16 -42 -16 -14 0 12 -4 19 -10 16
-14 -9 -13 8 2 23 17 17 29 4 24 -25z m1354 27 c0 -5 -7 -10 -15 -10 -8 0 -15
5 -15 10 0 6 7 10 15 10 8 0 15 -4 15 -10z m-592 -25 c2 -15 1 -17 -6 -6 -14
20 -25 -4 -12 -28 17 -32 13 -43 -11 -31 -27 15 -34 36 -20 66 13 30 44 29 49
-1z m-1628 -17 c0 -36 -4 -35 -14 5 -4 16 -2 27 4 27 5 0 10 -14 10 -32z
m-540 14 c0 -5 -7 -9 -15 -9 -8 0 -15 4 -15 9 0 4 7 8 15 8 8 0 15 -4 15 -8z
m2793 1 c-7 -2 -21 -2 -30 0 -10 3 -4 5 12 5 17 0 24 -2 18 -5z m47 -12 c0
-13 -6 -19 -19 -18 -16 1 -18 5 -10 19 13 24 29 23 29 -1z m344 -13 c13 -30
14 -31 15 -9 1 23 2 23 19 8 10 -10 23 -17 29 -17 6 0 13 -9 16 -20 6 -23 5
-23 -45 -10 -26 8 -41 20 -52 42 -19 37 -19 38 -6 38 5 0 16 -15 24 -32z m53
10 c-3 -8 -6 -5 -6 6 -1 11 2 17 5 13 3 -3 4 -12 1 -19z m-1587 -9 c0 -6 -4
-7 -10 -4 -5 3 -10 11 -10 16 0 6 5 7 10 4 6 -3 10 -11 10 -16z m371 -6 c-12
-20 -14 -14 -5 12 4 9 9 14 11 11 3 -2 0 -13 -6 -23z m227 -1 c2 -7 -2 -10
-12 -6 -9 3 -16 11 -16 16 0 13 23 5 28 -10z m-1408 -2 c0 -5 -5 -10 -11 -10
-5 0 -7 5 -4 10 3 6 8 10 11 10 2 0 4 -4 4 -10z m1610 -2 c0 -4 -4 -8 -9 -8
-6 0 -12 4 -15 8 -3 5 1 9 9 9 8 0 15 -4 15 -9z m110 8 c0 -3 -4 -8 -10 -11
-5 -3 -10 -1 -10 4 0 6 5 11 10 11 6 0 10 -2 10 -4z m380 -7 c0 -11 -22 -16
-42 -11 -28 7 -21 17 12 17 17 1 30 -2 30 -6z m-3289 -36 c-12 -20 -14 -14 -5
12 4 9 9 14 11 11 3 -2 0 -13 -6 -23z m1749 23 c0 -3 -4 -8 -10 -11 -5 -3 -10
-1 -10 4 0 6 5 11 10 11 6 0 10 -2 10 -4z m-1788 -26 c-24 -22 -32 -25 -32
-10 0 6 10 15 23 20 32 13 33 12 9 -10z m391 -15 c9 -19 12 -35 7 -35 -5 0
-12 11 -16 25 -3 14 -14 30 -23 35 -14 8 -14 9 0 10 8 0 23 -16 32 -35z m2449
0 c-2 -9 1 -14 6 -11 5 3 17 -3 27 -14 10 -11 25 -20 34 -20 9 0 25 -13 34
-30 10 -16 22 -30 27 -30 5 0 15 -13 24 -30 8 -16 10 -30 5 -30 -19 0 -9 -36
11 -37 14 -1 20 4 20 19 0 16 3 18 14 9 11 -10 15 -8 19 6 4 14 5 12 6 -5 1
-15 9 -26 21 -29 11 -3 26 -19 35 -36 19 -38 19 -36 -5 -30 -11 3 -20 9 -20
14 0 5 -6 6 -13 3 -8 -3 -20 2 -27 10 -7 9 -17 13 -23 9 -6 -3 -7 -1 -3 5 5 8
-2 12 -21 12 -16 0 -34 5 -41 12 -9 9 -13 6 -20 -12 -7 -18 -11 -20 -17 -10
-5 9 -4 15 3 18 7 2 12 20 11 40 0 29 -2 32 -8 17 -8 -19 -9 -19 -17 5 -4 14
-8 27 -9 30 -6 28 -18 46 -33 47 -17 1 -18 -4 -14 -46 3 -30 0 -51 -7 -55 -6
-4 -11 -1 -11 8 0 9 -4 16 -10 16 -13 0 -13 57 0 65 11 7 -8 55 -22 55 -10 0
-11 34 -1 44 12 11 28 0 25 -19z m-879 -5 c-3 -11 -9 -20 -14 -20 -10 0 -12
24 -2 33 13 13 21 7 16 -13z m-2316 -27 c-3 -10 -5 -4 -5 12 0 17 2 24 5 18 2
-7 2 -21 0 -30z m1503 27 c0 -5 -2 -10 -4 -10 -3 0 -8 5 -11 10 -3 6 -1 10 4
10 6 0 11 -4 11 -10z m1497 -12 c-3 -8 -6 -5 -6 6 -1 11 2 17 5 13 3 -3 4 -12
1 -19z m-1364 -8 c-3 -11 0 -20 6 -20 6 0 11 -8 11 -17 0 -10 4 -14 8 -8 17
23 29 12 29 -25 0 -23 -4 -37 -9 -33 -6 3 -14 0 -18 -7 -4 -7 -14 -10 -21 -8
-9 3 -3 10 16 21 l30 16 -32 1 c-17 0 -34 -6 -36 -12 -3 -8 -6 -6 -6 5 -1 10
5 20 13 23 8 3 13 12 12 19 -4 25 -16 29 -31 9 -9 -10 -14 -13 -13 -5 2 11 38
60 45 61 0 0 -1 -9 -4 -20z m1401 5 c3 -8 1 -15 -4 -15 -6 0 -10 7 -10 15 0 8
2 15 4 15 2 0 6 -7 10 -15z m532 -24 c0 -27 -4 -37 -13 -34 -16 6 -17 45 -1
61 16 16 16 17 14 -27z m-2505 -11 c5 0 9 6 9 12 0 7 7 2 16 -10 9 -13 13 -26
10 -29 -3 -4 -6 0 -7 8 -1 8 -5 3 -9 -11 -8 -24 -8 -24 -9 -2 -1 12 -5 22 -11
22 -10 0 -13 -9 -14 -49 -1 -13 -7 -26 -14 -29 -11 -3 -12 6 -7 44 4 27 10 58
13 69 6 19 6 19 10 -2 2 -13 8 -23 13 -23z m2729 30 c0 -5 -4 -10 -10 -10 -5
0 -10 5 -10 10 0 6 5 10 10 10 6 0 10 -4 10 -10z m-890 -15 c10 -12 10 -15 -4
-15 -9 0 -16 7 -16 15 0 8 2 15 4 15 2 0 9 -7 16 -15z m-525 -5 c8 -13 -5 -13
-25 0 -13 8 -13 10 2 10 9 0 20 -4 23 -10z m-892 -15 c-3 -9 -8 -14 -10 -11
-3 3 -2 9 2 15 9 16 15 13 8 -4z m2174 -32 c-11 -10 -27 8 -27 30 l0 21 16
-22 c9 -13 14 -26 11 -29z m173 38 c0 -6 -5 -13 -11 -16 -6 -4 -14 -17 -19
-29 -9 -21 -9 -21 -9 2 -1 12 6 25 14 28 8 4 12 10 9 15 -3 5 0 9 5 9 6 0 11
-4 11 -9z m53 -4 c6 -17 -15 -45 -30 -40 -16 6 -17 25 -1 41 15 15 25 15 31
-1z m67 3 c0 -5 -9 -10 -21 -10 -11 0 -17 5 -14 10 3 6 13 10 21 10 8 0 14 -4
14 -10z m-1640 -31 c0 -10 7 -19 15 -19 17 0 18 -6 5 -35 -8 -19 -9 -19 -9 -1
-1 11 -4 16 -8 13 -9 -10 -30 35 -25 55 5 23 22 13 22 -13z m1420 -21 c0 -14
33 -45 57 -52 19 -6 22 -14 20 -42 -1 -19 -3 -34 -4 -34 -2 0 -10 16 -18 36
-13 32 -18 36 -42 31 -42 -8 -64 8 -57 41 11 53 13 55 29 42 8 -7 15 -17 15
-22z m240 12 c10 -14 17 -17 27 -8 10 8 12 4 7 -22 -5 -22 -3 -35 7 -41 10 -6
10 -9 2 -9 -7 0 -10 -7 -7 -15 4 -8 1 -15 -5 -15 -6 0 -11 6 -11 14 0 13 -17
25 -31 22 -14 -3 -56 59 -51 76 6 24 44 23 62 -2z m-3962 -41 c3 -8 1 -11 -3
-7 -5 4 -14 3 -21 -3 -9 -8 -11 -5 -7 11 6 23 24 22 31 -1z m3897 1 c3 -5 1
-10 -4 -10 -6 0 -11 5 -11 10 0 6 2 10 4 10 3 0 8 -4 11 -10z m-4022 -32 c-8
-44 -11 -46 -23 -13 -8 22 -8 30 2 37 23 14 28 9 21 -24z m1964 0 c-3 -7 -5
-2 -5 12 0 14 2 19 5 13 2 -7 2 -19 0 -25z m453 12 c-8 -5 -19 -10 -25 -10 -5
0 -3 5 5 10 8 5 20 10 25 10 6 0 3 -5 -5 -10z m960 -4 c0 -3 -4 -8 -10 -11 -5
-3 -10 -1 -10 4 0 6 5 11 10 11 6 0 10 -2 10 -4z m-2245 -33 c-5 -10 -7 -25
-6 -35 1 -9 -3 -19 -9 -23 -13 -8 -13 40 1 67 13 24 25 16 14 -9z m2825 7 c0
-5 -5 -10 -11 -10 -5 0 -7 5 -4 10 3 6 8 10 11 10 2 0 4 -4 4 -10z m196 -52
c4 -30 3 -31 -10 -15 -8 10 -16 14 -17 10 -2 -5 -12 -1 -21 9 -15 15 -15 18
-3 18 8 0 15 -4 15 -10 0 -5 6 -7 14 -4 9 3 12 13 9 22 -4 9 -3 14 1 10 4 -3
9 -21 12 -40z m-1419 10 c-3 -8 -6 -5 -6 6 -1 11 2 17 5 13 3 -3 4 -12 1 -19z
m-994 -13 c-3 -9 -8 -14 -10 -11 -3 3 -2 9 2 15 9 16 15 13 8 -4z m2268 -18
c-16 -16 -26 0 -10 19 9 11 15 12 17 4 2 -6 -1 -17 -7 -23z m-486 3 c3 -5 1
-10 -4 -10 -6 0 -11 5 -11 10 0 6 2 10 4 10 3 0 8 -4 11 -10z m291 -12 c1 -13
5 -34 8 -48 4 -16 1 -13 -9 9 -9 18 -14 40 -11 47 8 20 11 17 12 -8z m-2716 8
c0 -3 -4 -8 -10 -11 -5 -3 -10 -1 -10 4 0 6 5 11 10 11 6 0 10 -2 10 -4z m915
-36 c3 -5 1 -10 -4 -10 -6 0 -11 5 -11 10 0 6 2 10 4 10 3 0 8 -4 11 -10z
m1412 -33 c-2 -7 2 -19 10 -28 12 -14 12 -17 0 -22 -18 -7 -42 35 -33 58 3 9
11 13 16 10 6 -4 9 -12 7 -18z m-43 -48 c-3 -5 -10 -7 -15 -3 -5 3 -7 10 -3
15 3 5 10 7 15 3 5 -3 7 -10 3 -15z m63 -31 c-3 -8 -6 -5 -6 6 -1 11 2 17 5
13 3 -3 4 -12 1 -19z m181 -7 c3 -10 0 -10 -16 -2 -30 16 -38 33 -11 22 13 -4
25 -14 27 -20z m59 -23 c-3 -8 -6 -5 -6 6 -1 11 2 17 5 13 3 -3 4 -12 1 -19z
m-1217 2 c0 -5 -4 -10 -10 -10 -5 0 -10 5 -10 10 0 6 5 10 10 10 6 0 10 -4 10
-10z m-2170 -20 c0 -5 -4 -10 -10 -10 -5 0 -10 5 -10 10 0 6 5 10 10 10 6 0
10 -4 10 -10z m3225 -10 c11 17 37 11 42 -10 3 -11 9 -20 13 -20 5 0 11 -9 15
-19 3 -11 12 -18 19 -15 7 3 17 -3 20 -13 4 -10 3 -19 -3 -21 -5 -2 -7 -10 -4
-19 5 -14 1 -13 -26 3 -17 10 -29 24 -27 30 3 7 -5 9 -20 6 -19 -3 -24 0 -24
17 0 12 4 19 10 16 5 -3 7 0 4 8 -3 8 -14 12 -27 10 -18 -4 -23 0 -23 16 0 14
4 17 12 10 8 -7 14 -6 19 1z m-2515 -34 c0 -3 -4 -8 -10 -11 -5 -3 -10 -1 -10
4 0 6 5 11 10 11 6 0 10 -2 10 -4z m2067 -42 c-3 -3 -12 -4 -19 -1 -8 3 -5 6
6 6 11 1 17 -2 13 -5z m-2172 -24 c-3 -5 -12 -10 -18 -10 -7 0 -6 4 3 10 19
12 23 12 15 0z m1175 0 c0 -5 -4 -10 -10 -10 -5 0 -10 5 -10 10 0 6 5 10 10
10 6 0 10 -4 10 -10z m-129 -33 c-10 -9 -11 -8 -5 6 3 10 9 15 12 12 3 -3 0
-11 -7 -18z m2019 -18 c0 -5 -7 -9 -15 -9 -9 0 -15 9 -15 21 0 18 2 19 15 9 8
-7 15 -16 15 -21z m-1303 -25 c-3 -3 -12 -4 -19 -1 -8 3 -5 6 6 6 11 1 17 -2
13 -5z m-727 -114 c0 -5 -7 -10 -15 -10 -8 0 -15 5 -15 10 0 6 7 10 15 10 8 0
15 -4 15 -10z m643 -37 c-3 -9 -10 -10 -17 -5 -6 5 -18 12 -26 15 -8 3 -1 5
16 4 22 -1 30 -5 27 -14z m687 -3 c0 -5 -5 -10 -11 -10 -5 0 -7 5 -4 10 3 6 8
10 11 10 2 0 4 -4 4 -10z m-3397 -77 c-7 -2 -21 -2 -30 0 -10 3 -4 5 12 5 17
0 24 -2 18 -5z m3237 -7 c0 -11 -19 -15 -25 -6 -3 5 1 10 9 10 9 0 16 -2 16
-4z m105 -46 c3 -6 -1 -7 -9 -4 -18 7 -21 14 -7 14 6 0 13 -4 16 -10z m-1110
-50 c3 -5 1 -10 -4 -10 -6 0 -11 5 -11 10 0 6 2 10 4 10 3 0 8 -4 11 -10z
m-248 -76 c-3 -3 -12 -4 -19 -1 -8 3 -5 6 6 6 11 1 17 -2 13 -5z m1713 -113
c0 -4 -15 -5 -32 -3 -28 4 -30 6 -13 12 21 8 45 3 45 -9z m-280 -95 c0 -2 -7
-7 -16 -10 -8 -3 -12 -2 -9 4 6 10 25 14 25 6z m-2283 -32 c-3 -3 -12 -4 -19
-1 -8 3 -5 6 6 6 11 1 17 -2 13 -5z"/>
<path d="M3735 1800 c-3 -6 1 -7 9 -4 18 7 21 14 7 14 -6 0 -13 -4 -16 -10z"/>
<path d="M720 1824 c0 -6 6 -17 14 -23 11 -9 15 -7 19 9 3 11 1 20 -4 20 -5 0
-9 -6 -9 -12 0 -9 -4 -8 -10 2 -5 8 -10 10 -10 4z"/>
<path d="M790 1693 c0 -4 5 -15 10 -23 8 -13 10 -13 10 2 0 9 -4 20 -10 23 -5
3 -10 3 -10 -2z"/>
<path d="M2080 1533 c0 -15 19 -37 26 -31 3 4 -1 14 -10 23 -9 9 -16 13 -16 8z"/>
<path d="M336 1317 c3 -10 9 -15 12 -12 3 3 0 11 -7 18 -10 9 -11 8 -5 -6z"/>
<path d="M3620 1309 c0 -5 5 -7 10 -4 6 3 10 8 10 11 0 2 -4 4 -10 4 -5 0 -10
-5 -10 -11z"/>
<path d="M3720 1210 c0 -5 5 -10 10 -10 6 0 10 5 10 10 0 6 -4 10 -10 10 -5 0
-10 -4 -10 -10z"/>
<path d="M2165 2240 c-3 -5 -4 -10 -1 -10 3 0 1 -11 -3 -24 -9 -21 -6 -24 35
-33 31 -7 41 -7 36 1 -3 6 -7 21 -8 34 -2 34 -14 40 -14 6 0 -21 -3 -25 -9
-14 -6 8 -8 17 -5 21 2 4 -3 12 -10 18 -10 8 -16 9 -21 1z"/>
<path d="M1890 2230 c-9 -6 -10 -10 -3 -10 6 0 15 5 18 10 8 12 4 12 -15 0z"/>
<path d="M1726 2195 c-3 -9 0 -15 9 -15 9 0 12 6 9 15 -4 8 -7 15 -9 15 -2 0
-5 -7 -9 -15z"/>
<path d="M3966 2203 c-3 -3 -3 -10 0 -14 7 -12 34 -11 34 0 0 11 -26 22 -34
14z"/>
<path d="M2716 2193 c-13 -13 -6 -42 9 -37 16 7 20 30 6 38 -4 3 -11 3 -15 -1z"/>
<path d="M1775 2171 c3 -22 25 -26 25 -3 0 10 -6 19 -14 19 -7 0 -13 -7 -11
-16z"/>
<path d="M3170 2173 c0 -10 -3 -28 -6 -40 -5 -17 -2 -23 9 -23 11 0 15 9 15
29 -1 15 2 33 6 40 4 6 1 11 -8 11 -9 0 -16 -8 -16 -17z"/>
<path d="M1933 2164 c0 -9 5 -10 16 -4 9 5 24 4 36 -2 15 -8 17 -8 9 2 -16 17
-61 20 -61 4z"/>
<path d="M1467 2144 c-6 -33 -1 -42 13 -28 7 7 7 20 2 34 -9 24 -9 24 -15 -6z"/>
<path d="M2692 2150 c0 -14 2 -19 5 -12 2 6 2 18 0 25 -3 6 -5 1 -5 -13z"/>
<path d="M3000 2154 c0 -8 5 -12 10 -9 6 4 8 11 5 16 -9 14 -15 11 -15 -7z"/>
<path d="M3870 2160 c0 -5 5 -10 11 -10 5 0 7 5 4 10 -3 6 -8 10 -11 10 -2 0
-4 -4 -4 -10z"/>
<path d="M4084 2159 c-3 -5 6 -9 20 -9 31 0 34 6 6 13 -11 3 -23 1 -26 -4z"/>
<path d="M1530 2130 c0 -5 7 -10 15 -10 8 0 15 5 15 10 0 6 -7 10 -15 10 -8 0
-15 -4 -15 -10z"/>
<path d="M1960 2126 c0 -17 27 -29 45 -18 10 5 11 12 5 22 -8 12 -10 11 -10
-5 -1 -18 -1 -19 -11 -2 -12 20 -29 23 -29 3z"/>
<path d="M2185 2129 c-4 -6 -4 -13 -1 -16 3 -4 6 -1 6 6 0 7 5 9 12 5 7 -4 8
-3 4 4 -9 15 -13 15 -21 1z"/>
<path d="M2284 2132 c5 -8 11 -26 15 -40 7 -26 8 -26 13 -5 4 15 -1 28 -15 40
-11 10 -17 12 -13 5z"/>
<path d="M2505 2124 c-16 -12 -16 -15 -3 -10 9 3 19 0 21 -7 2 -7 7 -10 9 -7
3 3 3 13 -1 23 -6 16 -8 16 -26 1z"/>
<path d="M2738 2127 c-12 -29 -10 -73 3 -60 6 6 9 26 7 44 -2 26 -5 30 -10 16z"/>
<path d="M2236 2112 c-3 -5 1 -9 9 -9 8 0 15 4 15 9 0 4 -4 8 -9 8 -6 0 -12
-4 -15 -8z"/>
<path d="M2693 2065 c0 -33 2 -45 4 -27 2 18 2 45 0 60 -2 15 -4 0 -4 -33z"/>
<path d="M1126 2084 c-8 -22 -8 -22 12 -27 12 -3 11 -5 -6 -6 -13 0 -20 -6
-17 -11 10 -16 45 8 45 32 0 17 -2 18 -15 8 -13 -11 -14 -10 -9 4 3 9 4 16 1
16 -3 0 -8 -7 -11 -16z"/>
<path d="M3060 2094 c0 -6 7 -19 15 -30 8 -10 14 -14 14 -9 0 6 -6 19 -14 29
-8 11 -15 15 -15 10z"/>
<path d="M2460 2081 c0 -5 3 -17 6 -26 5 -12 9 -14 14 -4 5 7 6 18 3 26 -6 15
-23 18 -23 4z"/>
<path d="M2521 2080 c-11 -6 -4 -50 8 -50 13 0 31 24 31 40 0 17 -21 22 -39
10z"/>
<path d="M3485 2081 c-3 -5 -1 -12 5 -16 5 -3 10 1 10 9 0 18 -6 21 -15 7z"/>
<path d="M1900 2070 c0 -11 27 -24 78 -35 17 -3 32 -3 32 2 0 5 -15 10 -32 11
-18 2 -43 9 -55 18 -13 8 -23 10 -23 4z"/>
<path d="M1975 2070 c3 -5 11 -10 16 -10 6 0 7 5 4 10 -3 6 -11 10 -16 10 -6
0 -7 -4 -4 -10z"/>
<path d="M3190 2071 c0 -5 5 -13 10 -16 6 -3 10 -2 10 4 0 5 -4 13 -10 16 -5
3 -10 2 -10 -4z"/>
<path d="M2370 2060 c0 -5 4 -10 9 -10 6 0 13 5 16 10 3 6 -1 10 -9 10 -9 0
-16 -4 -16 -10z"/>
<path d="M2035 2050 c-3 -5 -1 -10 4 -10 6 0 11 5 11 10 0 6 -2 10 -4 10 -3 0
-8 -4 -11 -10z"/>
<path d="M3231 2034 c0 -11 3 -14 6 -6 3 7 2 16 -1 19 -3 4 -6 -2 -5 -13z"/>
<path d="M2087 2029 c7 -7 15 -10 18 -7 3 3 -2 9 -12 12 -14 6 -15 5 -6 -5z"/>
<path d="M2607 2025 c-4 -8 -2 -17 3 -20 6 -4 10 3 10 14 0 25 -6 27 -13 6z"/>
<path d="M2440 2021 c0 -18 27 -26 70 -21 25 3 46 11 47 17 3 12 -33 10 -74
-3 -7 -2 -13 1 -13 6 0 6 -7 10 -15 10 -8 0 -15 -4 -15 -9z"/>
<path d="M3080 2009 c0 -15 5 -19 15 -15 10 4 15 -1 15 -14 0 -11 4 -20 9 -20
9 0 71 -129 71 -149 0 -7 4 -10 9 -7 5 3 12 -18 16 -46 9 -67 22 -101 35 -93
5 3 10 12 10 18 0 7 -4 6 -10 -3 -6 -10 -9 1 -8 36 0 34 -8 66 -22 95 -39 78
-103 183 -122 202 -17 17 -18 17 -18 -4z"/>
<path d="M976 2012 c-3 -6 -1 -14 5 -17 15 -10 25 3 12 16 -7 7 -13 7 -17 1z"/>
<path d="M2731 1988 c0 -9 -4 -25 -7 -35 -5 -14 -4 -15 5 -7 7 7 11 22 8 35
-2 13 -5 16 -6 7z"/>
<path d="M3430 1991 c0 -7 -6 -11 -15 -7 -9 3 -15 0 -15 -8 0 -16 37 -28 46
-15 3 5 0 17 -5 26 -7 12 -10 13 -11 4z"/>
<path d="M835 1980 c3 -5 10 -10 16 -10 5 0 9 5 9 10 0 6 -7 10 -16 10 -8 0
-12 -4 -9 -10z"/>
<path d="M2277 1983 c-9 -9 -9 -43 1 -43 4 0 8 11 8 25 2 27 1 29 -9 18z"/>
<path d="M2627 1973 c6 -16 25 -13 31 5 2 6 -6 10 -16 9 -12 -1 -18 -6 -15
-14z"/>
<path d="M2692 1970 c0 -14 2 -19 5 -12 2 6 2 18 0 25 -3 6 -5 1 -5 -13z"/>
<path d="M3450 1950 c0 -5 7 -10 15 -10 8 0 15 5 15 10 0 6 -7 10 -15 10 -8 0
-15 -4 -15 -10z"/>
<path d="M2515 1899 c4 -30 14 -71 21 -91 7 -21 11 -46 8 -56 -5 -14 -4 -15 5
-2 9 13 11 13 11 -2 0 -27 30 -22 31 5 0 14 2 17 6 7 3 -8 12 -19 20 -23 7 -5
11 -12 8 -18 -4 -5 -1 -9 6 -9 6 0 9 8 6 20 -3 11 -1 20 4 20 5 0 9 4 9 10 0
5 -7 7 -15 4 -11 -5 -15 1 -15 17 0 17 3 20 9 11 7 -11 9 -11 14 1 6 17 -11
37 -32 37 -9 0 -23 5 -31 10 -11 7 -6 8 17 4 28 -6 34 -3 43 17 9 21 9 20 5
-11 -3 -19 -2 -29 1 -22 3 6 12 12 19 12 8 0 13 13 13 34 0 19 3 40 8 47 4 8
3 10 -4 5 -7 -4 -12 -14 -12 -22 0 -12 -4 -12 -19 -2 -11 7 -17 16 -15 20 8
12 -10 10 -23 -3 -7 -7 -13 -7 -17 0 -4 5 -13 8 -21 4 -9 -3 -27 2 -41 12
l-26 17 7 -53z m68 -118 c-4 -16 -8 -17 -18 -8 -9 8 -10 16 -3 24 14 18 27 7
21 -16z"/>
<path d="M2726 1913 c-6 -14 -5 -15 5 -6 7 7 10 15 7 18 -3 3 -9 -2 -12 -12z"/>
<path d="M3500 1915 c0 -8 4 -15 10 -15 5 0 7 7 4 15 -4 8 -8 15 -10 15 -2 0
-4 -7 -4 -15z"/>
<path d="M3091 1904 c0 -11 3 -14 6 -6 3 7 2 16 -1 19 -3 4 -6 -2 -5 -13z"/>
<path d="M505 1890 c28 -12 47 -12 40 0 -3 6 -18 10 -33 9 -24 0 -25 -1 -7 -9z"/>
<path d="M2971 1884 c0 -11 3 -14 6 -6 3 7 2 16 -1 19 -3 4 -6 -2 -5 -13z"/>
<path d="M3427 1874 c4 -12 3 -15 -5 -10 -15 9 -16 -23 -2 -44 8 -12 12 -12
18 -2 10 15 4 60 -9 68 -5 3 -6 -3 -2 -12z"/>
<path d="M3091 1834 c0 -11 3 -14 6 -6 3 7 2 16 -1 19 -3 4 -6 -2 -5 -13z"/>
<path d="M3466 1797 c3 -10 9 -15 12 -12 3 3 0 11 -7 18 -10 9 -11 8 -5 -6z"/>
<path d="M4040 1735 c0 -5 5 -17 10 -25 5 -8 10 -10 10 -5 0 6 -5 17 -10 25
-5 8 -10 11 -10 5z"/>
<path d="M3540 1650 c-8 -5 -11 -12 -7 -16 4 -4 13 -2 19 4 15 15 7 24 -12 12z"/>
<path d="M4391 1564 c0 -11 3 -14 6 -6 3 7 2 16 -1 19 -3 4 -6 -2 -5 -13z"/>
<path d="M3537 1563 c-13 -12 -7 -43 8 -43 8 0 15 6 15 13 0 18 -15 38 -23 30z"/>
<path d="M3570 1550 c0 -5 5 -10 10 -10 6 0 10 5 10 10 0 6 -4 10 -10 10 -5 0
-10 -4 -10 -10z"/>
<path d="M3790 1540 c0 -5 4 -10 9 -10 6 0 13 5 16 10 3 6 -1 10 -9 10 -9 0
-16 -4 -16 -10z"/>
<path d="M3685 1510 c-4 -17 -5 -34 -2 -36 2 -3 7 10 11 27 8 42 0 50 -9 9z"/>
<path d="M4435 1530 c-3 -5 -1 -10 4 -10 6 0 11 5 11 10 0 6 -2 10 -4 10 -3 0
-8 -4 -11 -10z"/>
<path d="M3713 1516 c5 -16 27 -19 27 -3 0 7 -7 14 -15 14 -9 0 -14 -5 -12
-11z"/>
<path d="M3605 1450 c3 -5 8 -10 11 -10 2 0 4 5 4 10 0 6 -5 10 -11 10 -5 0
-7 -4 -4 -10z"/>
<path d="M4575 1390 c3 -5 10 -10 16 -10 5 0 9 5 9 10 0 6 -7 10 -16 10 -8 0
-12 -4 -9 -10z"/>
</g>
</svg>
